<svg width="48" height="48" viewBox="0 0 48 48" fill="none" xmlns="http://www.w3.org/2000/svg">
<circle cx="24" cy="24" r="24" fill="#FF7800"/>
<path d="M12.5476 31V28.984C12.5476 28.552 12.5716 28.088 12.6196 27.592C12.6676 27.08 12.7876 26.56 12.9796 26.032C13.1716 25.504 13.4516 24.984 13.8196 24.472C14.1876 23.944 14.6996 23.448 15.3556 22.984C16.0116 22.504 16.8196 22.064 17.7796 21.664C18.7556 21.264 19.9316 20.92 21.3076 20.632L25.4836 19.768C26.0916 19.656 26.5716 19.544 26.9236 19.432C27.2756 19.304 27.5396 19.184 27.7156 19.072C27.8916 18.944 28.0036 18.816 28.0516 18.688C28.0996 18.56 28.1236 18.424 28.1236 18.28C28.1236 18.104 28.0756 17.936 27.9796 17.776C27.8836 17.616 27.6756 17.472 27.3556 17.344C27.0356 17.216 26.5796 17.12 25.9876 17.056C25.3956 16.976 24.6116 16.936 23.6356 16.936C22.5156 16.936 21.6276 17.024 20.9716 17.2C20.3316 17.376 19.8436 17.6 19.5076 17.872C19.1716 18.128 18.9556 18.4 18.8596 18.688C18.7636 18.976 18.7076 19.232 18.6916 19.456H12.8596V19.264C12.8596 18.928 12.8916 18.536 12.9556 18.088C13.0356 17.624 13.1876 17.16 13.4116 16.696C13.6516 16.216 13.9956 15.744 14.4436 15.28C14.8916 14.816 15.4916 14.408 16.2436 14.056C16.9956 13.688 17.9156 13.392 19.0036 13.168C20.1076 12.944 21.4276 12.832 22.9636 12.832H23.9236C26.0196 12.832 27.7236 12.984 29.0356 13.288C30.3636 13.592 31.3956 14 32.1316 14.512C32.8676 15.024 33.3636 15.616 33.6196 16.288C33.8916 16.944 34.0276 17.624 34.0276 18.328V18.376C34.0276 19.048 33.9396 19.664 33.7636 20.224C33.6036 20.768 33.2756 21.264 32.7796 21.712C32.2836 22.144 31.5796 22.528 30.6676 22.864C29.7716 23.2 28.5956 23.488 27.1396 23.728L22.2436 24.544C21.1876 24.736 20.3476 24.936 19.7236 25.144C19.0996 25.352 18.6276 25.56 18.3076 25.768C17.9876 25.96 17.7796 26.152 17.6836 26.344C17.5876 26.52 17.5396 26.664 17.5396 26.776H28.8436V24.472H34.3396V31H12.5476Z" fill="#101010"/>
</svg>
