<svg width="48" height="48" viewBox="0 0 48 48" fill="none" xmlns="http://www.w3.org/2000/svg">
<circle cx="24" cy="24" r="24" fill="#FF7800"/>
<path d="M22.8558 31.312C21.2398 31.312 19.8478 31.192 18.6798 30.952C17.5278 30.712 16.5598 30.4 15.7758 30.016C14.9918 29.616 14.3598 29.168 13.8798 28.672C13.4158 28.176 13.0558 27.688 12.7998 27.208C12.5598 26.712 12.3998 26.24 12.3198 25.792C12.2558 25.344 12.2238 24.968 12.2238 24.664V24.472H18.1038C18.1198 24.584 18.1678 24.792 18.2478 25.096C18.3438 25.384 18.5598 25.688 18.8958 26.008C19.2478 26.312 19.7678 26.584 20.4558 26.824C21.1598 27.064 22.1278 27.184 23.3598 27.184C24.6238 27.184 25.6158 27.12 26.3358 26.992C27.0558 26.848 27.5918 26.672 27.9438 26.464C28.3118 26.256 28.5358 26.04 28.6158 25.816C28.6958 25.576 28.7358 25.368 28.7358 25.192C28.7358 25.016 28.7038 24.848 28.6398 24.688C28.5758 24.512 28.4558 24.36 28.2798 24.232C28.1038 24.104 27.8478 24 27.5118 23.92C27.1918 23.84 26.7678 23.8 26.2398 23.8H19.9278V19.648H25.9518C26.4478 19.648 26.8478 19.616 27.1518 19.552C27.4558 19.488 27.6878 19.4 27.8478 19.288C28.0238 19.176 28.1358 19.048 28.1838 18.904C28.2478 18.76 28.2798 18.616 28.2798 18.472C28.2798 18.312 28.2318 18.144 28.1358 17.968C28.0558 17.776 27.8318 17.608 27.4638 17.464C27.1118 17.304 26.5838 17.176 25.8798 17.08C25.1758 16.968 24.2158 16.912 22.9998 16.912C21.7998 16.912 20.8718 17 20.2158 17.176C19.5758 17.352 19.0958 17.56 18.7758 17.8C18.4718 18.024 18.2878 18.248 18.2238 18.472C18.1598 18.696 18.1198 18.856 18.1038 18.952H12.2718V18.712C12.2718 18.44 12.3038 18.112 12.3678 17.728C12.4318 17.328 12.5758 16.912 12.7998 16.48C13.0398 16.032 13.3758 15.592 13.8078 15.16C14.2558 14.728 14.8558 14.344 15.6078 14.008C16.3598 13.656 17.2958 13.376 18.4158 13.168C19.5358 12.944 20.8878 12.832 22.4718 12.832H23.4798C25.0638 12.832 26.4318 12.904 27.5838 13.048C28.7358 13.176 29.7038 13.36 30.4878 13.6C31.2718 13.84 31.9038 14.112 32.3838 14.416C32.8638 14.72 33.2318 15.048 33.4878 15.4C33.7598 15.736 33.9358 16.08 34.0158 16.432C34.0958 16.784 34.1358 17.12 34.1358 17.44V17.584C34.1358 18.048 34.0398 18.464 33.8478 18.832C33.6558 19.184 33.4158 19.488 33.1278 19.744C32.8558 19.984 32.5518 20.184 32.2158 20.344C31.8798 20.504 31.5678 20.616 31.2798 20.68C31.6318 20.776 32.0078 20.928 32.4078 21.136C32.8078 21.344 33.1758 21.624 33.5118 21.976C33.8478 22.328 34.1278 22.76 34.3518 23.272C34.5758 23.768 34.6878 24.36 34.6878 25.048V25.216C34.6878 25.968 34.5438 26.712 34.2558 27.448C33.9678 28.168 33.4238 28.816 32.6238 29.392C31.8398 29.968 30.7518 30.432 29.3598 30.784C27.9838 31.136 26.1918 31.312 23.9838 31.312H22.8558Z" fill="#101010"/>
</svg>
