<svg width="48" height="48" viewBox="0 0 48 48" fill="none" xmlns="http://www.w3.org/2000/svg">
<circle cx="24" cy="24" r="24" fill="#FF7800"/>
<path d="M23.2174 31.312C21.7294 31.312 20.4414 31.208 19.3534 31C18.2654 30.808 17.3454 30.552 16.5934 30.232C15.8414 29.896 15.2334 29.52 14.7694 29.104C14.3214 28.688 13.9694 28.272 13.7134 27.856C13.4734 27.424 13.3054 27.008 13.2094 26.608C13.1294 26.208 13.0894 25.864 13.0894 25.576V25.408H18.9934C19.0094 25.472 19.0654 25.6 19.1614 25.792C19.2574 25.984 19.4654 26.184 19.7854 26.392C20.1054 26.6 20.5774 26.784 21.2014 26.944C21.8254 27.104 22.6814 27.184 23.7694 27.184C24.7934 27.184 25.6094 27.12 26.2174 26.992C26.8254 26.848 27.2894 26.672 27.6094 26.464C27.9294 26.256 28.1374 26.024 28.2334 25.768C28.3294 25.496 28.3774 25.24 28.3774 25V24.856C28.3774 24.616 28.3294 24.368 28.2334 24.112C28.1374 23.84 27.9294 23.6 27.6094 23.392C27.2894 23.184 26.8254 23.016 26.2174 22.888C25.6094 22.744 24.7934 22.672 23.7694 22.672C22.6814 22.672 21.8254 22.744 21.2014 22.888C20.5774 23.016 20.0974 23.168 19.7614 23.344C19.4254 23.504 19.2014 23.664 19.0894 23.824C18.9934 23.968 18.9374 24.064 18.9214 24.112H13.4734V13.144H32.9854V17.296H18.9694V20.488C19.0494 20.424 19.2174 20.304 19.4734 20.128C19.7454 19.936 20.1294 19.744 20.6254 19.552C21.1374 19.36 21.7774 19.192 22.5454 19.048C23.3134 18.904 24.2414 18.832 25.3294 18.832H25.5454C27.3214 18.832 28.7694 18.992 29.8894 19.312C31.0094 19.632 31.8894 20.064 32.5294 20.608C33.1854 21.152 33.6334 21.792 33.8734 22.528C34.1134 23.248 34.2334 24.016 34.2334 24.832V24.976C34.2334 25.696 34.0974 26.432 33.8254 27.184C33.5694 27.936 33.0734 28.624 32.3374 29.248C31.6174 29.856 30.6094 30.352 29.3134 30.736C28.0334 31.12 26.3774 31.312 24.3454 31.312H23.2174Z" fill="#101010"/>
</svg>
