<svg width="57" height="57" viewBox="0 0 57 57" fill="none" xmlns="http://www.w3.org/2000/svg">
<path d="M19.443 37.4073C23.0886 36.5985 26.3291 35.1848 28.7595 32.1556C30.0759 30.6409 30.6835 28.5205 30.481 26.5009C30.2785 24.0775 28.557 22.7659 25.2152 22.261C20.6582 21.5531 16.2025 22.3609 11.8481 23.4717C8.20253 24.3805 0.303797 26.9048 0.101266 26.9048C0.708861 26.4 1.41772 25.8951 2.02532 25.3902C10.4304 18.9278 19.8481 14.2829 29.9747 11.1527C32.9114 10.2439 35.9494 9.63802 38.9873 10.2439C41.3165 10.6478 43.7468 12.4653 42.9367 15.7975C42.5316 17.4131 41.7776 18.9114 42.0253 22.26C42.3291 21.8561 42.6329 21.3512 42.9367 20.9473C43.6456 19.7356 44.2532 18.5239 44.962 17.4131C46.6835 14.8888 49.3165 14.1819 51.9494 15.6966C53.2658 16.5044 54.5823 15.9995 56 15.7975C55.5949 17.2112 55.1899 18.6248 54.6835 19.8366C50.9367 29.4292 44.2532 36.3976 34.6329 40.2336C27.6456 43.0609 20.3544 44.6776 12.962 45.6873C8.70886 46.2922 4.35443 46.6971 0 47C9.76991 44.7348 13.0633 43.1629 19.443 40.4366C17.3165 39.4268 8.50633 39.8297 6.78481 39.8297C10.6329 39.1239 15.0886 38.3151 19.443 37.4073Z" fill="#D2002D"/>
</svg>
