<svg width="48" height="48" viewBox="0 0 48 48" fill="none" xmlns="http://www.w3.org/2000/svg">
<circle cx="24" cy="24" r="24" fill="#FF7800"/>
<path d="M23.3298 33.36C21.7938 33.36 20.4578 33.232 19.3218 32.976C18.1858 32.72 17.2018 32.376 16.3698 31.944C15.5538 31.512 14.8818 31.008 14.3538 30.432C13.8258 29.84 13.4098 29.208 13.1058 28.536C12.8018 27.864 12.5858 27.176 12.4578 26.472C12.3458 25.768 12.2898 25.072 12.2898 24.384V23.808C12.2898 22.784 12.4498 21.744 12.7698 20.688C13.0898 19.616 13.6578 18.648 14.4738 17.784C15.2898 16.92 16.3938 16.216 17.7858 15.672C19.1778 15.112 20.9538 14.832 23.1138 14.832H24.0738C26.0898 14.832 27.7458 15.016 29.0418 15.384C30.3378 15.736 31.3618 16.192 32.1138 16.752C32.8658 17.296 33.3858 17.896 33.6738 18.552C33.9618 19.208 34.1058 19.832 34.1058 20.424V20.52H28.3458C28.3138 20.472 28.2418 20.368 28.1298 20.208C28.0338 20.032 27.8178 19.856 27.4818 19.68C27.1618 19.488 26.6898 19.32 26.0658 19.176C25.4578 19.032 24.6337 18.96 23.5938 18.96C22.2978 18.96 21.2738 19.12 20.5218 19.44C19.7698 19.76 19.1938 20.144 18.7938 20.592C18.4098 21.04 18.1618 21.504 18.0498 21.984C17.9378 22.448 17.8818 22.832 17.8818 23.136V23.232C18.0258 23.136 18.2338 22.992 18.5058 22.8C18.7938 22.608 19.2178 22.416 19.7778 22.224C20.3378 22.032 21.0578 21.864 21.9378 21.72C22.8338 21.576 23.9538 21.504 25.2978 21.504H25.6098C27.4818 21.504 29.0178 21.664 30.2178 21.984C31.4178 22.288 32.3618 22.696 33.0498 23.208C33.7378 23.72 34.2098 24.312 34.4658 24.984C34.7378 25.64 34.8738 26.32 34.8738 27.024V27.24C34.8738 27.896 34.7458 28.584 34.4898 29.304C34.2498 30.024 33.7538 30.688 33.0018 31.296C32.2498 31.888 31.1858 32.384 29.8098 32.784C28.4498 33.168 26.6418 33.36 24.3858 33.36H23.3298ZM18.6018 27.24C18.6018 27.448 18.6658 27.672 18.7938 27.912C18.9218 28.152 19.1778 28.376 19.5618 28.584C19.9458 28.792 20.4738 28.968 21.1458 29.112C21.8338 29.24 22.7298 29.304 23.8338 29.304C24.9858 29.304 25.8978 29.24 26.5698 29.112C27.2578 28.984 27.7778 28.824 28.1298 28.632C28.4978 28.424 28.7378 28.208 28.8498 27.984C28.9618 27.744 29.0178 27.52 29.0178 27.312V27.216C29.0178 26.992 28.9618 26.768 28.8498 26.544C28.7378 26.304 28.4978 26.088 28.1298 25.896C27.7778 25.704 27.2578 25.552 26.5698 25.44C25.8978 25.312 24.9858 25.248 23.8338 25.248C22.7298 25.248 21.8338 25.304 21.1458 25.416C20.4578 25.528 19.9218 25.68 19.5378 25.872C19.1698 26.048 18.9218 26.256 18.7938 26.496C18.6658 26.72 18.6018 26.944 18.6018 27.168V27.24Z" fill="#101010"/>
</svg>
