<svg width="180" height="88" viewBox="0 0 180 88" fill="none" xmlns="http://www.w3.org/2000/svg">
<path d="M62.8656 59.5294C62.8656 58.208 63.8624 57.5473 65.174 57.5473C66.6429 57.5473 67.5872 58.5251 67.5872 59.7408H66.5904C66.5904 58.8951 66.1183 58.4459 65.174 58.4459C64.3083 58.4459 63.8624 58.8159 63.8624 59.503C63.8624 60.0315 64.2034 60.4015 65.3314 60.7451C67.0626 61.2472 67.6135 61.9343 67.6135 63.0443C67.6135 64.445 66.6167 64.9736 65.2264 64.9736C63.6263 64.9736 62.6295 64.1543 62.6295 62.78H63.6263C63.6263 63.6257 64.2034 64.075 65.2264 64.075C66.1708 64.075 66.6429 63.7315 66.6429 63.0443C66.6429 62.1722 65.7511 61.8286 65.069 61.6172C63.4689 61.1944 62.8656 60.5337 62.8656 59.5294ZM68.4529 62.3308V62.1722C68.4529 60.5865 69.1086 59.5558 70.5251 59.5558C71.9678 59.5558 72.5974 60.5865 72.5974 62.1722V62.3308C72.5974 63.8107 72.1252 65 70.5251 65C68.9512 65 68.4529 63.8372 68.4529 62.3308ZM69.3709 62.2251V62.3836C69.3709 63.5993 69.6333 64.1807 70.5513 64.1807C71.4694 64.1807 71.7317 63.5993 71.7317 62.3836V62.2251C71.7317 60.983 71.4432 60.4015 70.5513 60.4015C69.6333 60.3751 69.3709 60.9565 69.3709 62.2251ZM76.296 58.4194C76.1386 58.393 75.9812 58.393 75.8238 58.393C75.2467 58.393 75.0369 58.7101 75.0369 59.3708V59.7144H76.1386V60.5072H75.0369V64.9207H74.1188V60.5072H73.3056V59.7144H74.145V59.3708C74.145 58.2609 74.6434 57.6002 75.7713 57.6002C75.9287 57.6002 76.1386 57.6266 76.296 57.6795V58.4194ZM79.7322 64.815C79.5749 64.8679 79.365 64.8943 79.2076 64.8943C78.1059 64.8943 77.5813 64.2336 77.5813 63.1236V60.4808H76.7419V59.688H77.5813V58.2609H78.4731V59.688H79.5749V60.4808H78.4731V63.15C78.4731 63.7843 78.683 64.1543 79.2601 64.1543C79.4175 64.1543 79.5749 64.1543 79.7322 64.1279V64.815ZM85.0572 63.4936L85.8966 59.688H86.8409L85.4244 64.8943H84.6899L83.5358 61.1151L82.4078 64.8943H81.6733L80.2569 59.688H81.2012L82.0668 63.4143L83.1685 59.688H83.903L85.0572 63.4936ZM90.5395 64.8943C90.4608 64.7357 90.4083 64.5243 90.4083 64.3393C90.0411 64.7621 89.5427 65 88.9918 65C88.0737 65 87.313 64.4186 87.313 63.4672C87.313 62.3572 88.1 61.7229 89.5951 61.7229H90.3821V61.3794C90.3821 60.7187 90.146 60.4015 89.4115 60.4015C88.8082 60.4015 88.4672 60.6922 88.4147 61.1944H87.5229C87.6016 60.2165 88.3098 59.5823 89.464 59.5823C90.6706 59.5823 91.2739 60.2165 91.2739 61.3001V63.6522C91.2477 64.075 91.3264 64.4979 91.4838 64.8943H90.5395ZM90.3821 63.3086V62.4893H89.7525C88.6508 62.4893 88.1787 62.78 88.1787 63.3615C88.1787 63.9164 88.4934 64.1807 89.0968 64.1807C89.7001 64.1807 90.1985 63.8372 90.3821 63.3086ZM95.0774 60.428C94.9201 60.3751 94.7102 60.3487 94.5266 60.3487C93.9495 60.3487 93.556 60.8244 93.3987 61.3265V64.8679H92.5068V59.6615H93.3724V60.3222C93.6085 59.8465 94.0807 59.5558 94.5791 59.5558C94.7364 59.5558 94.9201 59.5823 95.0774 59.6615V60.428ZM99.7204 63.4407C99.5367 64.3657 98.6973 65 97.753 65C96.2054 65 95.5234 63.89 95.5234 62.4629V62.3043C95.4709 60.7187 96.3628 59.5823 97.6219 59.5823C98.9859 59.5823 99.6941 60.5601 99.6941 62.2515V62.7008H96.4152C96.4677 63.6257 96.8349 64.2072 97.7268 64.2072C98.199 64.2336 98.5924 63.9164 98.7236 63.4407H99.7204ZM96.4677 61.8815H98.8023C98.7498 60.8772 98.3826 60.3751 97.6481 60.3751C96.9399 60.3751 96.5989 60.9301 96.4677 61.8815ZM62.7607 52.5789H76.6894C79.6535 52.5789 82.0668 50.2796 82.0668 47.4783V46.5268C82.0668 43.7783 79.7847 41.532 76.8993 41.4263H76.7944H67.3774C66.5904 41.4527 65.9347 40.8184 65.9084 40.0256V39.1006C65.9347 38.3078 66.5904 37.6735 67.3774 37.6735H80.9913V34H67.3774C64.4133 34 62 36.2992 62 39.1006V40.0256C62 42.8269 64.4133 45.1262 67.3774 45.1262H76.6894C77.4764 45.0997 78.1321 45.734 78.1584 46.5533V47.5047C78.1321 48.2975 77.4764 48.9318 76.6894 48.9054H62.7607V52.5789ZM86.631 34.0264H90.5395V52.5524H86.631V34.0264ZM141.139 52.5524H145.048V39.127C145.048 36.3257 142.634 34.0264 139.67 34.0264H120.259V52.5524H124.142V37.7263H130.621V52.5789H134.529V37.7263H139.697C140.484 37.6999 141.139 38.3342 141.166 39.127V52.5524H141.139ZM168 39.127C168 36.3257 165.587 34.0264 162.623 34.0264H150.268V37.6999H162.623C163.41 37.6735 164.065 38.3078 164.092 39.1006V41.4263H154.255C151.291 41.4263 148.878 43.7255 148.878 46.5268V47.4783C148.878 50.2796 151.291 52.5789 154.255 52.5789H167.948L168 39.127ZM164.092 48.8789H154.281C153.494 48.9054 152.838 48.2711 152.812 47.4783V46.5268C152.838 45.734 153.52 45.0997 154.281 45.0997H164.118L164.092 48.8789ZM95.7857 47.4783C95.7857 50.2796 98.199 52.5789 101.163 52.5789H114.882V41.4527H104.652V45.1262H111V48.8789H101.189C100.402 48.9054 99.7466 48.2711 99.7204 47.4783V39.1006C99.7466 38.3078 100.429 37.6735 101.189 37.6735H114.856V34H101.163C98.199 34 95.7857 36.2992 95.7857 39.1006V47.4783Z" fill="white"/>
<path d="M54.0443 43.6058C54.0443 40.5443 47.7381 37.9538 39.0508 37.0903C39.2601 39.1313 39.3648 41.3293 39.3648 43.6058C39.3648 45.7777 39.2601 47.9757 39.0508 50.1475C47.7643 49.2578 54.0443 46.6673 54.0443 43.6058Z" fill="url(#paint0_linear_488_3323)"/>
<path d="M32.5355 50.4615C34.7073 50.4615 36.9053 50.3568 39.0772 50.1475C39.2865 47.9757 39.3912 45.8038 39.3912 43.6058C39.3912 41.3293 39.2603 39.1313 39.0772 37.0903L26.02 50.1475C28.1657 50.3568 30.3375 50.4877 32.5355 50.4615Z" fill="url(#paint1_linear_488_3323)"/>
<path d="M32.5355 36.7762C34.7073 36.7762 36.9053 36.8808 39.0772 37.0902C38.1875 28.4028 35.5708 22.0967 32.5355 22.0967C29.5002 22.0967 26.8835 28.4028 26.02 37.0902C28.1657 36.8547 30.3375 36.7762 32.5355 36.7762Z" fill="#E30613"/>
<path d="M32.5355 50.4612C30.3637 50.4612 28.1919 50.3566 26.02 50.1472C26.9097 58.8345 29.5002 65.1407 32.5355 65.1407C35.5708 65.1407 38.1875 58.8345 39.0772 50.1472C36.8792 50.3566 34.7073 50.4612 32.5355 50.4612Z" fill="#E30613"/>
<path d="M25.6795 43.6058C25.6795 41.434 25.7842 39.2622 25.9935 37.0903C17.3062 37.98 11 40.5705 11 43.6058C11 46.6412 17.3062 49.2578 25.9935 50.1475C25.7842 47.9757 25.6795 45.8038 25.6795 43.6058Z" fill="#E30613"/>
<path d="M25.9933 37.09C25.5485 41.4336 25.5485 45.8035 25.9933 50.1471L39.0505 37.09C34.7068 36.6451 30.337 36.6451 25.9933 37.09Z" fill="#B70E0C"/>
<defs>
<linearGradient id="paint0_linear_488_3323" x1="40.3769" y1="38.3219" x2="46.3932" y2="48.7477" gradientUnits="userSpaceOnUse">
<stop stop-color="#7C7C7B"/>
<stop offset="0.27" stop-color="#5B5B5A"/>
<stop offset="0.56" stop-color="#40403F"/>
<stop offset="0.81" stop-color="#30302F"/>
<stop offset="1" stop-color="#2A2A29"/>
</linearGradient>
<linearGradient id="paint1_linear_488_3323" x1="31.436" y1="41.6738" x2="37.0908" y2="51.471" gradientUnits="userSpaceOnUse">
<stop stop-color="#9C1006"/>
<stop offset="0.08" stop-color="#951005"/>
<stop offset="0.44" stop-color="#7A0E02"/>
<stop offset="0.76" stop-color="#6A0C01"/>
<stop offset="1" stop-color="#640C00"/>
</linearGradient>
</defs>
</svg>
