<svg width="180" height="88" viewBox="0 0 180 88" fill="none" xmlns="http://www.w3.org/2000/svg">
<path fill-rule="evenodd" clip-rule="evenodd" d="M122.443 45.8023C121.339 45.8023 120.281 45.6212 119.27 45.2589C118.258 44.8967 117.476 44.4185 116.924 43.8244L117.539 42.5855C118.077 43.1361 118.792 43.5817 119.684 43.9222C120.575 44.2627 121.495 44.433 122.443 44.433C123.774 44.433 124.771 44.183 125.436 43.6831C126.102 43.1832 126.434 42.5347 126.434 41.7378C126.434 41.1292 126.254 40.6438 125.893 40.2815C125.532 39.9192 125.09 39.6403 124.566 39.4447C124.042 39.2491 123.314 39.0353 122.38 38.8035C121.262 38.5137 120.37 38.2347 119.705 37.9667C119.04 37.6986 118.47 37.2893 117.996 36.7386C117.522 36.188 117.285 35.4417 117.285 34.4999C117.285 33.7319 117.483 33.0327 117.879 32.4024C118.275 31.7721 118.884 31.2685 119.705 30.8918C120.526 30.515 121.545 30.3267 122.762 30.3267C123.611 30.3267 124.442 30.4462 125.256 30.6853C126.07 30.9244 126.774 31.254 127.368 31.6743L126.838 32.9567C126.215 32.5364 125.55 32.2213 124.842 32.0112C124.134 31.801 123.441 31.696 122.762 31.696C121.46 31.696 120.48 31.9532 119.822 32.4676C119.163 32.982 118.834 33.6449 118.834 34.4564C118.834 35.065 119.015 35.554 119.376 35.9235C119.737 36.293 120.189 36.5756 120.734 36.7712C121.279 36.9668 122.012 37.1806 122.932 37.4124C124.021 37.6877 124.902 37.9594 125.574 38.2275C126.247 38.4956 126.816 38.9013 127.283 39.4447C127.75 39.9881 127.984 40.7235 127.984 41.6508C127.984 42.4188 127.782 43.118 127.379 43.7483C126.976 44.3786 126.356 44.8786 125.521 45.2481C124.686 45.6176 123.66 45.8023 122.443 45.8023ZM137.898 45.8023C136.426 45.8023 135.092 45.4654 133.896 44.7916C132.7 44.1178 131.766 43.1941 131.094 42.0203C130.422 40.8466 130.085 39.528 130.085 38.0645C130.085 36.601 130.422 35.2824 131.094 34.1086C131.766 32.9349 132.7 32.0112 133.896 31.3374C135.092 30.6636 136.426 30.3267 137.898 30.3267C139.369 30.3267 140.696 30.6599 141.878 31.3265C143.06 31.993 143.99 32.9168 144.669 34.0978C145.349 35.2787 145.688 36.601 145.688 38.0645C145.688 39.528 145.349 40.8502 144.669 42.0312C143.99 43.2122 143.06 44.1359 141.878 44.8025C140.696 45.469 139.369 45.8023 137.898 45.8023ZM141.082 43.553C140.134 44.0964 139.072 44.368 137.898 44.368C136.723 44.368 135.658 44.0964 134.703 43.553C133.747 43.0096 132.997 42.2561 132.453 41.2925C131.908 40.3289 131.635 39.253 131.635 38.0648C131.635 36.8765 131.908 35.8007 132.453 34.837C132.997 33.8734 133.747 33.1199 134.703 32.5766C135.658 32.0332 136.723 31.7615 137.898 31.7615C139.072 31.7615 140.134 32.0332 141.082 32.5766C142.03 33.1199 142.773 33.8734 143.311 34.837C143.849 35.8007 144.118 36.8765 144.118 38.0648C144.118 39.253 143.849 40.3289 143.311 41.2925C142.773 42.2561 142.03 43.0096 141.082 43.553ZM150.416 31.8483V37.8256H158.101V39.2167H150.416V45.6721H148.845V30.4573H159.035V31.8483H150.416ZM161.401 31.8483H166.623V45.6721H168.194V31.8483H173.416V30.4573H161.401V31.8483ZM58.5361 30.4498H61.9646V45.6646H58.5361V30.4498ZM109.748 42.4116H102.849L101.533 45.6719H98.0088L104.632 30.4571H108.029L114.673 45.6719H111.064L109.748 42.4116ZM108.666 39.7382L106.31 33.9131L103.953 39.7382H108.666ZM65.7485 30.4571H72.4992C74.1126 30.4571 75.5384 30.7723 76.7768 31.4026C78.0151 32.0329 78.9774 32.9204 79.6638 34.0652C80.3502 35.2099 80.6934 36.543 80.6934 38.0645C80.6934 39.586 80.3502 40.9191 79.6638 42.0638C78.9774 43.2086 78.0151 44.0961 76.7768 44.7264C75.5384 45.3568 74.1126 45.6719 72.4992 45.6719H65.7485V30.4571ZM72.3298 42.7809C73.8158 42.7809 75.0011 42.3571 75.8856 41.5094C76.7701 40.6617 77.2124 39.5134 77.2124 38.0643C77.2124 36.6153 76.7701 35.4669 75.8856 34.6193C75.0011 33.7716 73.8158 33.3477 72.3298 33.3477H69.188V42.7809H72.3298ZM95.3331 45.6719V42.8463H87.245V39.3252H94.1443V36.5865H87.245V33.2827H95.0571V30.4571H83.8272V45.6719H95.3331ZM92.1494 56.7614V53.6424H93.0109V53.1877L92.1494 53.1879V52.7117C92.1494 52.5438 92.1706 52.4091 92.213 52.3077L92.2264 52.2783C92.2778 52.1741 92.349 52.1019 92.44 52.0616C92.5311 52.0214 92.6327 52.0012 92.7447 52.0012C92.8568 52.0012 92.9782 52.0202 93.109 52.0581V51.5678C93.0296 51.5442 92.9502 51.5276 92.8708 51.5181C92.7914 51.5086 92.712 51.5039 92.6327 51.5039C92.3058 51.5039 92.049 51.5975 91.8622 51.7845C91.6754 51.9716 91.582 52.257 91.582 52.6407V53.1879L90.8956 53.1877V53.6424H91.582V56.7614H92.1494ZM77.1928 56.5804C76.9569 56.7343 76.6849 56.8113 76.3767 56.8113C76.0592 56.8113 75.7884 56.7308 75.5642 56.5697L75.5231 56.5387C75.3886 56.4327 75.2825 56.2999 75.2046 56.1402L75.1858 56.0998L75.186 56.7616H74.6187V51.5325H75.186L75.1858 53.8171L75.2046 53.7771C75.2903 53.6032 75.4101 53.4601 75.5642 53.3477C75.7884 53.1843 76.0592 53.1026 76.3767 53.1026C76.6896 53.1026 76.9628 53.1784 77.1963 53.33C77.4297 53.4815 77.613 53.6947 77.7461 53.9694C77.8792 54.2441 77.9457 54.5686 77.9457 54.9427C77.9457 55.3169 77.8792 55.6449 77.7461 55.9268C77.613 56.2086 77.4286 56.4265 77.1928 56.5804ZM59.0685 56.7613L59.0624 53.0294L60.6935 56.7613H61.0997L62.7176 53.0029L62.7177 56.7613H63.25V51.7027H62.7738L60.9028 56.0618L59.0124 51.7027H58.5361V56.7613H59.0685ZM66.0473 56.8115C66.2995 56.8115 66.5458 56.7688 66.7863 56.6836C67.0268 56.5983 67.224 56.4823 67.3781 56.3355L67.189 55.9163C67.0162 56.0584 66.8353 56.1638 66.6462 56.2324C66.4571 56.3011 66.2598 56.3355 66.0543 56.3355C65.6621 56.3355 65.3644 56.217 65.1613 55.9802C64.9581 55.7434 64.8566 55.3929 64.8566 54.9287L64.8567 54.9571H67.4412V54.8506C67.4412 54.4858 67.3816 54.1732 67.2626 53.9127C67.1435 53.6522 66.9719 53.4521 66.7477 53.3124C66.5236 53.1726 66.2551 53.1028 65.9423 53.1028C65.6154 53.1028 65.327 53.1809 65.0772 53.3372C64.8274 53.4935 64.6324 53.7114 64.4924 53.9909C64.3523 54.2703 64.2822 54.5948 64.2822 54.9642C64.2822 55.3479 64.3534 55.6783 64.4959 55.9553C64.6383 56.2324 64.8414 56.4444 65.1052 56.5912C65.3691 56.7381 65.6831 56.8115 66.0473 56.8115ZM64.8804 54.5805H66.9293L66.9268 54.549C66.9 54.2728 66.8228 54.0512 66.695 53.8842C66.5245 53.6616 66.2759 53.5503 65.949 53.5503C65.6081 53.5503 65.3408 53.6723 65.147 53.9162L65.1187 53.9535C64.999 54.1181 64.9203 54.3223 64.8825 54.566L64.8804 54.5805ZM68.95 56.7617V54.7227C68.95 54.3722 69.0353 54.0951 69.2057 53.8914C69.3761 53.6877 69.6108 53.5859 69.9096 53.5859C70.1618 53.5859 70.3474 53.6629 70.4665 53.8168C70.5855 53.9707 70.6451 54.2135 70.6451 54.545V56.7617H71.2124V54.7227C71.2124 54.3722 71.2977 54.0951 71.4681 53.8914C71.6385 53.6877 71.8708 53.5859 72.165 53.5859C72.4172 53.5859 72.6016 53.6629 72.7184 53.8168C72.8351 53.9707 72.8935 54.2135 72.8935 54.545V56.7617H73.4608V54.5166C73.4608 54.043 73.3628 53.6889 73.1666 53.4545C72.9705 53.22 72.6787 53.1028 72.2911 53.1028C71.9736 53.1028 71.7016 53.188 71.4751 53.3586C71.3194 53.4758 71.1996 53.621 71.1156 53.7942L71.1113 53.8032C71.0525 53.634 70.9698 53.4961 70.8634 53.3896L70.8307 53.3586C70.6416 53.188 70.3766 53.1028 70.0357 53.1028C69.7509 53.1028 69.5046 53.1786 69.2968 53.3301C69.1409 53.4438 69.0199 53.5935 68.9336 53.7791L68.919 53.8118L68.866 53.188H68.3267C68.35 53.3538 68.3652 53.5208 68.3722 53.6889C68.3792 53.8571 68.3827 54.024 68.3827 54.1898V56.7617H68.95ZM76.2712 56.335C75.921 56.335 75.6525 56.2154 75.4657 55.9762C75.2789 55.737 75.1855 55.3972 75.1855 54.9567C75.1855 54.5209 75.2789 54.1834 75.4657 53.9442C75.6525 53.705 75.921 53.5854 76.2712 53.5854C76.6121 53.5854 76.8783 53.7039 77.0697 53.9407C77.2612 54.1775 77.3569 54.5114 77.3569 54.9425C77.3569 55.3829 77.2612 55.7252 77.0697 55.9691C76.8783 56.213 76.6121 56.335 76.2712 56.335ZM81.195 56.6836C80.9545 56.7688 80.7082 56.8115 80.456 56.8115C80.0918 56.8115 79.7778 56.7381 79.5139 56.5912C79.2501 56.4444 79.047 56.2324 78.9046 55.9553C78.7621 55.6783 78.6909 55.3479 78.6909 54.9642C78.6909 54.5948 78.761 54.2703 78.901 53.9909C79.0411 53.7114 79.2361 53.4935 79.4859 53.3372C79.7357 53.1809 80.0241 53.1028 80.3509 53.1028C80.6638 53.1028 80.9323 53.1726 81.1564 53.3124C81.3806 53.4521 81.5522 53.6522 81.6713 53.9127C81.7903 54.1732 81.8499 54.4858 81.8499 54.8506V54.9571H79.2654L79.2653 54.9287C79.2653 55.3929 79.3668 55.7434 79.57 55.9802C79.7731 56.217 80.0708 56.3355 80.463 56.3355C80.6685 56.3355 80.8658 56.3011 81.0549 56.2324C81.244 56.1638 81.4249 56.0584 81.5977 55.9163L81.7868 56.3355C81.6327 56.4823 81.4354 56.5983 81.195 56.6836ZM81.338 54.5805H79.2891L79.2912 54.566C79.329 54.3223 79.4077 54.1181 79.5274 53.9535L79.5557 53.9162C79.7495 53.6723 80.0168 53.5503 80.3577 53.5503C80.6846 53.5503 80.9332 53.6616 81.1037 53.8842C81.2315 54.0512 81.3088 54.2728 81.3355 54.549L81.338 54.5805ZM83.3582 54.7227V56.7617H82.7909V54.1898C82.7909 54.024 82.7874 53.8571 82.7804 53.6889C82.7734 53.5208 82.7582 53.3538 82.7349 53.188H83.2742L83.3315 53.8439L83.3329 53.8398C83.4102 53.6285 83.5319 53.4621 83.698 53.3408C83.9151 53.1821 84.1591 53.1028 84.4299 53.1028C84.4906 53.1028 84.5478 53.1063 84.6015 53.1134C84.6552 53.1205 84.7054 53.1312 84.7521 53.1454L84.7381 53.6712C84.6307 53.6333 84.507 53.6143 84.3669 53.6143C84.1241 53.6143 83.9291 53.6688 83.782 53.7777C83.6349 53.8867 83.5275 54.0252 83.4598 54.1934C83.3921 54.3615 83.3582 54.5379 83.3582 54.7227ZM88.7705 56.8115C89.1067 56.8115 89.3997 56.7357 89.6495 56.5841C89.8994 56.4326 90.0931 56.2182 90.2309 55.9411C90.3686 55.6641 90.4375 55.336 90.4375 54.9571C90.4375 54.5829 90.3686 54.2561 90.2309 53.9767C90.0931 53.6972 89.8994 53.4817 89.6495 53.3301C89.3997 53.1786 89.1067 53.1028 88.7705 53.1028C88.4343 53.1028 88.1413 53.1786 87.8915 53.3301C87.6417 53.4817 87.4479 53.6972 87.3101 53.9767C87.1724 54.2561 87.1035 54.5829 87.1035 54.9571C87.1035 55.336 87.1724 55.6641 87.3101 55.9411C87.4479 56.2182 87.6417 56.4326 87.8915 56.5841C88.1413 56.7357 88.4343 56.8115 88.7705 56.8115ZM87.9614 55.9833C88.1505 56.2178 88.4202 56.335 88.7704 56.335C89.116 56.335 89.3833 56.2178 89.5724 55.9833C89.7615 55.7488 89.8561 55.4066 89.8561 54.9567C89.8561 54.5162 89.7604 54.1775 89.5689 53.9407C89.3775 53.7039 89.1113 53.5854 88.7704 53.5854C88.4295 53.5854 88.1622 53.7039 87.9684 53.9407C87.7746 54.1775 87.6777 54.5162 87.6777 54.9567C87.6777 55.4066 87.7723 55.7488 87.9614 55.9833ZM98.374 56.6406C98.0985 56.759 97.7716 56.8182 97.3934 56.8182C97.1366 56.8182 96.8961 56.7957 96.6719 56.7507C96.4478 56.7057 96.24 56.6347 96.0486 56.5376C95.8571 56.4405 95.6843 56.3209 95.5302 56.1788L95.7474 55.7312C95.9995 55.9443 96.2528 56.0959 96.5073 56.1859C96.7618 56.2759 97.0595 56.3209 97.4004 56.3209C97.7973 56.3209 98.1055 56.2415 98.3249 56.0829C98.5444 55.9242 98.6541 55.7004 98.6541 55.4115C98.6541 55.2362 98.5993 55.0953 98.4895 54.9887C98.3798 54.8822 98.2304 54.7969 98.0413 54.733C97.8522 54.669 97.6385 54.6086 97.4004 54.5518C97.1622 54.4997 96.9358 54.4393 96.721 54.3706C96.5062 54.3019 96.3159 54.2155 96.1501 54.1113C95.9843 54.0071 95.8548 53.8745 95.7614 53.7134C95.668 53.5524 95.6213 53.3511 95.6213 53.1095C95.6213 52.8206 95.696 52.566 95.8454 52.3458C95.9949 52.1255 96.205 51.9538 96.4758 51.8307C96.7466 51.7075 97.0665 51.6459 97.4354 51.6459C97.6642 51.6459 97.8837 51.6708 98.0938 51.7205C98.3039 51.7703 98.4989 51.8425 98.6787 51.9372C98.8584 52.032 99.0184 52.148 99.1585 52.2854L98.9343 52.733C98.7055 52.5293 98.4697 52.3801 98.2269 52.2854C97.9841 52.1906 97.7202 52.1433 97.4354 52.1433C97.0478 52.1433 96.7443 52.2262 96.5248 52.3919C96.3054 52.5577 96.1956 52.7898 96.1956 53.0882C96.1956 53.2729 96.2447 53.4221 96.3427 53.5358C96.4408 53.6495 96.5785 53.7407 96.756 53.8093C96.9334 53.878 97.1366 53.9408 97.3654 53.9976C97.6082 54.0545 97.8416 54.116 98.0658 54.1823C98.2899 54.2486 98.4895 54.3304 98.6646 54.4274C98.8398 54.5245 98.9787 54.6501 99.0814 54.804C99.1841 54.9579 99.2355 55.1533 99.2355 55.3901C99.2355 55.6791 99.1608 55.9301 99.0114 56.1432C98.8619 56.3564 98.6495 56.5222 98.374 56.6406ZM100.821 52.3282V51.6746H100.127V52.3282H100.821ZM100.751 53.1877V56.7614H100.184V53.1877H100.751ZM103.479 58.3461C104.002 58.3461 104.398 58.2111 104.666 57.9411C104.935 57.6711 105.069 57.2685 105.069 56.7333V53.188H104.501V53.8028L104.49 53.7773C104.411 53.6192 104.304 53.4865 104.168 53.3793L104.127 53.3479C103.9 53.1845 103.624 53.1028 103.297 53.1028C102.984 53.1028 102.709 53.1774 102.474 53.3266C102.238 53.4758 102.053 53.683 101.92 53.9482C101.787 54.2135 101.721 54.5237 101.721 54.879C101.721 55.2342 101.787 55.5444 101.92 55.8097C102.053 56.0749 102.238 56.2822 102.474 56.4314C102.709 56.5806 102.984 56.6552 103.297 56.6552C103.516 56.6552 103.712 56.6173 103.885 56.5415C104.058 56.4657 104.204 56.3579 104.323 56.2182C104.394 56.1344 104.454 56.0416 104.503 55.9399L104.508 55.9281V56.783C104.508 57.1241 104.43 57.3854 104.273 57.567L104.246 57.5965C104.071 57.7789 103.815 57.8701 103.479 57.8701C103.231 57.8701 103.01 57.8417 102.813 57.7848C102.617 57.728 102.409 57.6356 102.19 57.5077L102.092 57.9766C102.484 58.2229 102.946 58.3461 103.479 58.3461ZM102.592 55.8305C102.79 56.0579 103.062 56.1716 103.408 56.1716C103.749 56.1716 104.016 56.0567 104.21 55.827C104.403 55.5973 104.5 55.2811 104.5 54.8785C104.5 54.4759 104.403 54.1597 104.21 53.93C104.016 53.7003 103.749 53.5854 103.408 53.5854C103.062 53.5854 102.79 53.7003 102.592 53.93C102.393 54.1597 102.294 54.4759 102.294 54.8785C102.294 55.2858 102.393 55.6032 102.592 55.8305ZM106.808 56.7617V54.7227C106.808 54.3722 106.894 54.0951 107.064 53.8914C107.235 53.6877 107.469 53.5859 107.768 53.5859C108.02 53.5859 108.206 53.6629 108.325 53.8168C108.444 53.9707 108.503 54.2135 108.503 54.545V56.7617H109.071V54.7227C109.071 54.3722 109.156 54.0951 109.326 53.8914C109.497 53.6877 109.729 53.5859 110.023 53.5859C110.276 53.5859 110.46 53.6629 110.577 53.8168C110.694 53.9707 110.752 54.2135 110.752 54.545V56.7617H111.319V54.5166C111.319 54.043 111.221 53.6889 111.025 53.4545C110.829 53.22 110.537 53.1028 110.15 53.1028C109.832 53.1028 109.56 53.188 109.333 53.3586C109.178 53.4758 109.058 53.621 108.974 53.7942L108.97 53.8032C108.911 53.634 108.828 53.4961 108.722 53.3896L108.689 53.3586C108.5 53.188 108.235 53.1028 107.894 53.1028C107.609 53.1028 107.363 53.1786 107.155 53.3301C106.999 53.4438 106.878 53.5935 106.792 53.7791L106.778 53.8115L106.724 53.188H106.185C106.208 53.3538 106.224 53.5208 106.231 53.6889C106.238 53.8571 106.241 54.024 106.241 54.1898V56.7617H106.808ZM114.649 56.5699C114.424 56.731 114.151 56.8115 113.829 56.8115C113.516 56.8115 113.242 56.7369 113.006 56.5877C112.77 56.4385 112.588 56.2253 112.46 55.9482C112.331 55.6712 112.267 55.3455 112.267 54.9713C112.267 54.5972 112.332 54.2703 112.463 53.9909C112.594 53.7114 112.777 53.4935 113.013 53.3372C113.249 53.1809 113.521 53.1028 113.829 53.1028C114.151 53.1028 114.424 53.1833 114.649 53.3443L114.69 53.3753C114.824 53.4814 114.93 53.6142 115.008 53.7739L115.02 53.7992V53.188H115.58V56.7617H115.02V56.1152L115.008 56.1404C114.923 56.316 114.803 56.4592 114.649 56.5699ZM113.942 56.3355C113.596 56.3355 113.326 56.2171 113.132 55.9802C112.939 55.7434 112.842 55.4071 112.842 54.9714C112.842 54.5356 112.939 54.1958 113.132 53.9518C113.326 53.7079 113.596 53.5859 113.942 53.5859C114.282 53.5859 114.547 53.7043 114.737 53.9412C114.926 54.178 115.02 54.5167 115.02 54.9572C115.02 55.3976 114.927 55.7375 114.74 55.9767C114.553 56.2159 114.287 56.3355 113.942 56.3355ZM121.3 56.6406C121.025 56.759 120.698 56.8182 120.32 56.8182C120.063 56.8182 119.822 56.7957 119.598 56.7507C119.374 56.7057 119.166 56.6347 118.975 56.5376C118.783 56.4405 118.611 56.3209 118.457 56.1788L118.674 55.7312C118.926 55.9443 119.179 56.0959 119.434 56.1859C119.688 56.2759 119.986 56.3209 120.327 56.3209C120.724 56.3209 121.032 56.2415 121.251 56.0829C121.471 55.9242 121.581 55.7004 121.581 55.4115C121.581 55.2362 121.526 55.0953 121.416 54.9887C121.306 54.8822 121.157 54.7969 120.968 54.733C120.779 54.669 120.565 54.6086 120.327 54.5518C120.089 54.4997 119.862 54.4393 119.647 54.3706C119.433 54.3019 119.242 54.2155 119.076 54.1113C118.911 54.0071 118.781 53.8745 118.688 53.7134C118.594 53.5524 118.548 53.3511 118.548 53.1095C118.548 52.8206 118.622 52.566 118.772 52.3458C118.921 52.1255 119.131 51.9538 119.402 51.8307C119.673 51.7075 119.993 51.6459 120.362 51.6459C120.591 51.6459 120.81 51.6708 121.02 51.7205C121.23 51.7703 121.425 51.8425 121.605 51.9372C121.785 52.032 121.945 52.148 122.085 52.2854L121.861 52.733C121.632 52.5293 121.396 52.3801 121.153 52.2854C120.91 52.1906 120.647 52.1433 120.362 52.1433C119.974 52.1433 119.671 52.2262 119.451 52.3919C119.232 52.5577 119.122 52.7898 119.122 53.0882C119.122 53.2729 119.171 53.4221 119.269 53.5358C119.367 53.6495 119.505 53.7407 119.682 53.8093C119.86 53.878 120.063 53.9408 120.292 53.9976C120.535 54.0545 120.768 54.116 120.992 54.1823C121.216 54.2486 121.416 54.3304 121.591 54.4275C121.766 54.5245 121.905 54.6501 122.008 54.804C122.111 54.9579 122.162 55.1533 122.162 55.3901C122.162 55.6791 122.087 55.9301 121.938 56.1432C121.788 56.3564 121.576 56.5222 121.3 56.6406ZM124.567 56.8115C124.904 56.8115 125.197 56.7357 125.446 56.5841C125.696 56.4326 125.89 56.2182 126.028 55.9411C126.166 55.6641 126.234 55.336 126.234 54.9571C126.234 54.5829 126.166 54.2561 126.028 53.9767C125.89 53.6972 125.696 53.4817 125.446 53.3301C125.197 53.1786 124.904 53.1028 124.567 53.1028C124.231 53.1028 123.938 53.1786 123.688 53.3301C123.439 53.4817 123.245 53.6972 123.107 53.9767C122.969 54.2561 122.9 54.5829 122.9 54.9571C122.9 55.336 122.969 55.6641 123.107 55.9411C123.245 56.2182 123.439 56.4326 123.688 56.5841C123.938 56.7357 124.231 56.8115 124.567 56.8115ZM123.758 55.9838C123.947 56.2182 124.217 56.3355 124.567 56.3355C124.912 56.3355 125.18 56.2182 125.369 55.9838C125.558 55.7493 125.652 55.4071 125.652 54.9572C125.652 54.5167 125.557 54.178 125.365 53.9412C125.174 53.7043 124.908 53.5859 124.567 53.5859C124.226 53.5859 123.959 53.7043 123.765 53.9412C123.571 54.178 123.474 54.5167 123.474 54.9572C123.474 55.4071 123.569 55.7493 123.758 55.9838ZM127.945 56.7614V53.6424H128.807V53.1877L127.945 53.1879V52.7117C127.945 52.5438 127.966 52.4091 128.009 52.3077L128.022 52.2783C128.074 52.1741 128.145 52.1019 128.236 52.0616C128.327 52.0214 128.428 52.0012 128.541 52.0012C128.653 52.0012 128.774 52.0202 128.905 52.0581V51.5678C128.825 51.5442 128.746 51.5276 128.667 51.5181C128.587 51.5086 128.508 51.5039 128.428 51.5039C128.102 51.5039 127.845 51.5975 127.658 51.7845C127.471 51.9716 127.378 52.257 127.378 52.6407V53.1879L126.691 53.1877V53.6424H127.378V56.7614H127.945ZM130.984 56.7934C130.907 56.8052 130.822 56.8112 130.729 56.8112C130.402 56.8112 130.142 56.7164 129.948 56.527L129.919 56.4978C129.745 56.3088 129.657 56.0344 129.657 55.6744L129.657 53.6424H128.971V53.1877L129.657 53.1879L129.657 52.2712L130.224 52.0652L130.224 53.1879L131.233 53.1877V53.6424H130.224L130.224 55.5962C130.224 55.7857 130.251 55.9325 130.305 56.0367C130.359 56.1409 130.432 56.2132 130.526 56.2534C130.619 56.2937 130.724 56.3138 130.841 56.3138C130.911 56.3138 130.974 56.3091 131.03 56.2996C131.086 56.2901 131.149 56.2736 131.219 56.2499V56.7401C131.14 56.7638 131.061 56.7815 130.984 56.7934ZM133.533 56.7614L134.535 53.9708L135.543 56.7614H136.089L137.392 53.1877H136.832L135.816 56.0761L134.801 53.1877H134.303L133.275 56.0753L132.279 53.1877H131.684L132.986 56.7614H133.533ZM140.337 56.5699C140.113 56.731 139.84 56.8115 139.518 56.8115C139.205 56.8115 138.93 56.7369 138.695 56.5877C138.459 56.4385 138.277 56.2253 138.148 55.9482C138.02 55.6712 137.956 55.3455 137.956 54.9713C137.956 54.5972 138.021 54.2703 138.152 53.9909C138.282 53.7114 138.466 53.4935 138.702 53.3372C138.937 53.1809 139.209 53.1028 139.518 53.1028C139.84 53.1028 140.113 53.1833 140.337 53.3443L140.378 53.3753C140.513 53.4814 140.619 53.6142 140.697 53.7739L140.708 53.7989L140.708 53.188H141.269V56.7617H140.708L140.708 56.1155L140.697 56.1404C140.611 56.316 140.491 56.4592 140.337 56.5699ZM139.629 56.335C139.284 56.335 139.014 56.2166 138.82 55.9797C138.627 55.7429 138.53 55.4066 138.53 54.9709C138.53 54.5351 138.627 54.1953 138.82 53.9513C139.014 53.7074 139.284 53.5854 139.629 53.5854C139.97 53.5854 140.235 53.7039 140.424 53.9407C140.614 54.1775 140.708 54.5162 140.708 54.9567C140.708 55.3972 140.615 55.737 140.428 55.9762C140.241 56.2154 139.975 56.335 139.629 56.335ZM143.015 54.7227V56.7617H142.448V54.1898C142.448 54.024 142.444 53.8571 142.437 53.6889C142.43 53.5208 142.415 53.3538 142.392 53.188H142.931L142.988 53.8439L142.99 53.8398C143.067 53.6285 143.189 53.4621 143.355 53.3408C143.572 53.1821 143.816 53.1028 144.087 53.1028C144.147 53.1028 144.205 53.1063 144.258 53.1134C144.312 53.1205 144.362 53.1312 144.409 53.1454L144.395 53.6712C144.287 53.6333 144.164 53.6143 144.024 53.6143C143.781 53.6143 143.586 53.6688 143.439 53.7777C143.292 53.8867 143.184 54.0252 143.117 54.1934C143.049 54.3615 143.015 54.5379 143.015 54.7227ZM146.548 56.8115C146.8 56.8115 147.047 56.7688 147.287 56.6836C147.528 56.5983 147.725 56.4823 147.879 56.3355L147.69 55.9163C147.517 56.0584 147.336 56.1638 147.147 56.2324C146.958 56.3011 146.761 56.3355 146.555 56.3355C146.163 56.3355 145.865 56.217 145.662 55.9802C145.459 55.7434 145.358 55.3929 145.358 54.9287L145.358 54.9571H147.942V54.8506C147.942 54.4858 147.883 54.1732 147.764 53.9127C147.644 53.6522 147.473 53.4521 147.249 53.3124C147.025 53.1726 146.756 53.1028 146.443 53.1028C146.116 53.1028 145.828 53.1809 145.578 53.3372C145.328 53.4935 145.133 53.7114 144.993 53.9909C144.853 54.2703 144.783 54.5948 144.783 54.9642C144.783 55.3479 144.854 55.6783 144.997 55.9553C145.139 56.2324 145.342 56.4444 145.606 56.5912C145.87 56.7381 146.184 56.8115 146.548 56.8115ZM145.381 54.5805H147.43L147.428 54.549C147.401 54.2728 147.324 54.0512 147.196 53.8842C147.026 53.6616 146.777 53.5503 146.45 53.5503C146.109 53.5503 145.842 53.6723 145.648 53.9162L145.62 53.9535C145.5 54.1181 145.421 54.3223 145.383 54.566L145.381 54.5805ZM153.067 56.8182C153.282 56.8182 153.498 56.804 153.715 56.7756C153.932 56.7472 154.135 56.7069 154.324 56.6548C154.514 56.6027 154.673 56.5412 154.804 56.4701V54.1255H153.039V54.5874H154.279V56.1318L154.275 56.1333C154.151 56.1759 154.019 56.2124 153.878 56.2429L153.792 56.2605C153.561 56.3055 153.324 56.328 153.081 56.328C152.493 56.328 152.045 56.1492 151.736 55.7916C151.428 55.434 151.274 54.9118 151.274 54.225C151.274 53.5524 151.425 53.0373 151.726 52.6797C152.027 52.3221 152.46 52.1433 153.025 52.1433C153.31 52.1433 153.569 52.1895 153.803 52.2819C154.036 52.3742 154.274 52.5246 154.517 52.733L154.741 52.2854C154.526 52.0723 154.273 51.9124 153.981 51.8059C153.689 51.6993 153.371 51.646 153.025 51.646C152.544 51.646 152.127 51.7478 151.775 51.9515C151.422 52.1552 151.151 52.45 150.962 52.836C150.773 53.2221 150.679 53.6851 150.679 54.225C150.679 54.7697 150.773 55.2351 150.962 55.6211C151.151 56.0071 151.425 56.3032 151.782 56.5092C152.139 56.7152 152.568 56.8182 153.067 56.8182ZM156.557 54.7227V56.7617H155.99V54.1898C155.99 54.024 155.987 53.8571 155.98 53.6889C155.973 53.5208 155.957 53.3538 155.934 53.188H156.473L156.531 53.8439L156.532 53.8398C156.609 53.6285 156.731 53.4621 156.897 53.3408C157.114 53.1821 157.358 53.1028 157.629 53.1028C157.69 53.1028 157.747 53.1063 157.801 53.1134C157.854 53.1205 157.905 53.1312 157.951 53.1454L157.937 53.6712C157.83 53.6333 157.706 53.6143 157.566 53.6143C157.323 53.6143 157.128 53.6688 156.981 53.7777C156.834 53.8867 156.727 54.0252 156.659 54.1934C156.591 54.3615 156.557 54.5379 156.557 54.7227ZM159.992 56.8115C160.328 56.8115 160.621 56.7357 160.871 56.5841C161.121 56.4326 161.315 56.2182 161.453 55.9411C161.59 55.6641 161.659 55.336 161.659 54.9571C161.659 54.5829 161.59 54.2561 161.453 53.9767C161.315 53.6972 161.121 53.4817 160.871 53.3301C160.621 53.1786 160.328 53.1028 159.992 53.1028C159.656 53.1028 159.363 53.1786 159.113 53.3301C158.863 53.4817 158.67 53.6972 158.532 53.9767C158.394 54.2561 158.325 54.5829 158.325 54.9571C158.325 55.336 158.394 55.6641 158.532 55.9411C158.67 56.2182 158.863 56.4326 159.113 56.5841C159.363 56.7357 159.656 56.8115 159.992 56.8115ZM159.183 55.9833C159.372 56.2178 159.642 56.335 159.992 56.335C160.338 56.335 160.605 56.2178 160.794 55.9833C160.983 55.7488 161.078 55.4066 161.078 54.9567C161.078 54.5162 160.982 54.1775 160.791 53.9407C160.599 53.7039 160.333 53.5854 159.992 53.5854C159.651 53.5854 159.384 53.7039 159.19 53.9407C158.996 54.1775 158.899 54.5162 158.899 54.9567C158.899 55.4066 158.994 55.7488 159.183 55.9833ZM163.868 56.8112C164.153 56.8112 164.407 56.7378 164.628 56.5909C164.781 56.49 164.903 56.3566 164.995 56.1907L165.017 56.1483V56.7614H165.57V53.1877H165.003V55.2055C165.003 55.5465 164.907 55.8189 164.716 56.0225C164.524 56.2262 164.272 56.328 163.959 56.328C163.693 56.328 163.495 56.2523 163.364 56.1007C163.233 55.9491 163.168 55.7123 163.168 55.3902V53.1877H162.601V55.4044C162.601 55.8686 162.707 56.2191 162.919 56.4559C163.132 56.6928 163.448 56.8112 163.868 56.8112ZM167.31 56.1003V58.2964H166.743V54.1898C166.743 54.024 166.739 53.8571 166.732 53.6889C166.725 53.5208 166.71 53.3538 166.687 53.188H167.226L167.284 53.8748L167.285 53.8729C167.372 53.6514 167.506 53.4752 167.688 53.3443C167.912 53.1833 168.183 53.1028 168.501 53.1028C168.809 53.1028 169.081 53.1809 169.317 53.3372C169.552 53.4935 169.737 53.7114 169.87 53.9909C170.003 54.2703 170.07 54.5972 170.07 54.9713C170.07 55.3455 170.003 55.6712 169.87 55.9482C169.737 56.2253 169.554 56.4385 169.32 56.5877C169.087 56.7369 168.813 56.8115 168.501 56.8115C168.183 56.8115 167.912 56.7309 167.688 56.5699L167.647 56.5389C167.513 56.4329 167.406 56.3 167.328 56.1404L167.31 56.1003ZM168.395 56.3355C168.045 56.3355 167.777 56.2159 167.59 55.9767C167.403 55.7375 167.31 55.3976 167.31 54.9572C167.31 54.5167 167.403 54.178 167.59 53.9412C167.777 53.7043 168.045 53.5859 168.395 53.5859C168.736 53.5859 169.002 53.7079 169.194 53.9518C169.385 54.1958 169.481 54.5356 169.481 54.9714C169.481 55.4071 169.385 55.7434 169.194 55.9802C169.002 56.2171 168.736 56.3355 168.395 56.3355Z" fill="white"/>
<path d="M21.686 51.2222C24.5457 50.5664 27.0877 49.4201 28.9941 46.964C30.0268 45.7359 30.5034 44.0166 30.3446 42.3791C30.1857 40.4142 28.8353 39.3507 26.2139 38.9413C22.6392 38.3674 19.144 39.0224 15.7282 39.923C12.8685 40.6598 6.67239 42.7066 6.51352 42.7066C6.99014 42.2973 7.5462 41.8879 8.02282 41.4786C14.6161 36.2387 22.0037 32.4726 29.9474 29.9346C32.2511 29.1977 34.6342 28.7065 37.0173 29.1977C38.8443 29.5252 40.7508 30.9989 40.1153 33.7007C39.7976 35.0107 39.2061 36.2255 39.4004 38.9405C39.6387 38.613 39.877 38.2037 40.1153 37.8762C40.6714 36.8937 41.148 35.9112 41.704 35.0107C43.0545 32.9639 45.1198 32.3907 47.1852 33.6188C48.2179 34.2738 49.2505 33.8644 50.3627 33.7007C50.0449 34.8469 49.7272 35.9931 49.33 36.9756C46.3908 44.7534 41.148 50.4034 33.6015 53.5138C28.1203 55.8062 22.4009 57.1169 16.602 57.9357C13.2656 58.4261 9.84987 58.7544 6.43408 59C14.098 57.1634 16.6814 55.8889 21.686 53.6783C20.0178 52.8596 13.1068 53.1863 11.7563 53.1863C14.7749 52.614 18.2702 51.9582 21.686 51.2222Z" fill="#D2002D"/>
</svg>
